<?xml version="1.0" encoding="UTF-8"?>
<svg xmlns:xlink="http://www.w3.org/1999/xlink" xmlns="http://www.w3.org/2000/svg" version="1.1" viewBox="0 0 256 256">
    <defs>
        <linearGradient id="_未命名的渐变_64" x1="41.4" y1="128.4" x2="78.1" y2="128.4" gradientUnits="userSpaceOnUse">
            <stop offset="0" stop-color="#00ff89"/>
            <stop offset="1" stop-color="#00bfe9"/>
        </linearGradient>
        <linearGradient id="_未命名的渐变_64-2" x1="88.8" x2="122.2" xlink:href="#_未命名的渐变_64"/>
        <linearGradient id="_未命名的渐变_64-3" x1="126.5" x2="170.3" xlink:href="#_未命名的渐变_64"/>
        <linearGradient id="_未命名的渐变_64-4" x1="172.2" x2="213.6" xlink:href="#_未命名的渐变_64"/>
    </defs>
    <!-- Generator: Adobe Illustrator 28.7.1, SVG Export Plug-In . SVG Version: 1.2.0 Build 142)  -->
    <g>
        <g id="_图层_1">
            <g>
                <path d="M63.4,154l-13.5-41.2c.2,1.5.5,3.3.8,5.6s.5,4.8.8,7.6c.2,2.8.3,5.7.3,8.7v19.3h-10.3v-51.2h15.1l13.1,40.9c-.4-2.3-.8-5.3-1.2-9-.4-3.6-.6-7.8-.6-12.4v-19.6h10.3v51.2h-14.7Z"
                      fill="url(#_未命名的渐变_64)" stroke="#006b9f" stroke-miterlimit="10" stroke-width=".5"/>
                <path d="M100.9,111.5v12.3h17.7v8.5h-17.7v13.1h21.4v8.7h-33.5v-51.2h33.5l-1.2,8.6h-20.1Z"
                      fill="url(#_未命名的渐变_64-2)" stroke="#006b9f" stroke-miterlimit="10" stroke-width=".5"/>
                <path d="M127.6,102.8h13l7.7,16.4,7.9-16.4h12.8l-13.6,23.5,14.8,27.7h-13l-9-19.5-8.9,19.5h-12.8l14.5-27.2-13.4-24Z"
                      fill="url(#_未命名的渐变_64-3)" stroke="#006b9f" stroke-miterlimit="10" stroke-width=".5"/>
                <path d="M198.6,112.1v41.9h-12.1v-41.9h-14.4v-9.3h41.4l-1.3,9.3h-13.7Z" fill="url(#_未命名的渐变_64-4)"
                      stroke="#006b9f" stroke-miterlimit="10" stroke-width=".5"/>
            </g>
        </g>
    </g>
</svg>